<?xml version="1.0" standalone="no"?>
<!DOCTYPE svg PUBLIC "-//W3C//DTD SVG 20010904//EN"
 "http://www.w3.org/TR/2001/REC-SVG-20010904/DTD/svg10.dtd">
<svg version="1.0" xmlns="http://www.w3.org/2000/svg"
 width="612.000000pt" height="612.000000pt" viewBox="0 0 612.000000 612.000000"
 preserveAspectRatio="xMidYMid meet">
<metadata>
Created by potrace 1.14, written by Peter Selinger 2001-2017
</metadata>
<g transform="translate(0.000000,612.000000) scale(0.100000,-0.100000)"
fill="#000000" stroke="none">
<path d="M3004 6022 c-34 -22 -82 -166 -100 -298 -3 -27 -7 -50 -9 -52 -1 -2
-13 14 -26 35 -49 80 -139 156 -198 168 -32 6 -33 -9 -3 -51 46 -66 81 -149
85 -202 1 -17 4 -32 7 -32 8 0 10 -101 3 -120 -3 -8 -6 -26 -8 -40 -7 -78 -90
-190 -195 -267 -78 -58 -207 -126 -221 -117 -7 4 -9 3 -6 -3 6 -9 -22 -25 -55
-32 -4 -1 -29 -13 -55 -27 -72 -41 -184 -85 -197 -77 -6 3 -8 2 -3 -2 9 -11
-81 -57 -95 -49 -6 4 -8 3 -5 -3 5 -8 -61 -48 -72 -43 -2 1 -7 -2 -10 -7 -12
-16 -93 -53 -103 -46 -7 3 -8 1 -4 -5 4 -8 -4 -16 -21 -23 -15 -6 -36 -18 -45
-26 -10 -9 -18 -13 -18 -10 0 4 -36 -18 -81 -48 -45 -30 -84 -55 -88 -55 -3 0
-19 -11 -34 -26 -16 -14 -33 -22 -40 -18 -6 4 -9 4 -5 -1 7 -8 -3 -18 -57 -60
-14 -11 -39 -32 -54 -48 -19 -18 -35 -25 -47 -21 -12 4 -15 3 -7 -3 8 -6 6
-14 -7 -31 -18 -21 -37 -31 -25 -13 3 5 2 12 -3 15 -4 2 -9 -5 -9 -16 -2 -24
-32 -60 -45 -52 -4 3 -7 1 -6 -3 4 -13 -54 -73 -64 -67 -5 3 -7 2 -6 -3 3 -8
-10 -25 -64 -87 -15 -17 -41 -50 -58 -74 -17 -23 -35 -40 -40 -37 -6 3 -7 -1
-4 -9 3 -9 1 -16 -4 -16 -6 0 -13 8 -15 18 -4 16 -5 16 -6 0 -1 -12 -7 -16
-18 -12 -15 5 -15 4 -3 -4 8 -6 18 -8 22 -6 11 7 10 -8 -2 -26 -5 -8 -17 -15
-27 -15 -14 0 -17 -7 -15 -27 1 -16 -2 -28 -8 -28 -6 0 -9 4 -5 9 9 15 -13 23
-32 11 -16 -10 -16 -10 2 -5 16 4 21 0 23 -20 1 -14 -2 -25 -6 -25 -4 0 -16
-14 -26 -30 -9 -17 -21 -28 -25 -25 -5 2 -8 -3 -8 -13 1 -21 -34 -92 -45 -92
-4 0 -8 -9 -8 -19 0 -25 -18 -37 -33 -22 -6 6 -16 11 -21 11 -6 0 -3 -5 7 -11
9 -6 14 -15 11 -21 -5 -7 -2 -8 5 -3 10 6 10 2 0 -16 -7 -13 -13 -27 -14 -31
0 -4 -8 -16 -17 -27 -9 -11 -14 -22 -11 -24 2 -3 0 -13 -6 -24 -5 -10 -16 -33
-23 -50 -7 -18 -16 -33 -21 -33 -4 0 -3 8 2 18 7 14 6 18 -9 18 -18 0 -19 -7
-5 -38 4 -10 11 -15 16 -12 5 3 6 -1 3 -9 -6 -16 -35 -19 -32 -3 2 7 -1 13 -7
14 -5 1 -10 -1 -10 -5 0 -5 -4 -14 -8 -20 -6 -9 -3 -11 8 -7 9 4 15 3 14 -2
-4 -22 2 -35 13 -28 11 6 11 4 1 -7 -7 -7 -13 -21 -13 -31 0 -10 -4 -18 -8
-18 -4 0 -8 11 -8 24 0 15 4 22 10 18 6 -3 5 2 -3 11 -14 18 -26 23 -17 8 4
-5 0 -12 -6 -14 -9 -4 -9 -6 1 -6 11 -1 10 -5 -5 -16 -19 -15 -19 -15 1 -9 18
6 18 5 -2 -15 -25 -23 -30 -37 -11 -25 8 5 9 2 5 -10 -4 -10 -7 -21 -7 -24 0
-4 -5 0 -11 8 -9 13 -10 12 -5 -2 3 -10 1 -20 -4 -23 -13 -8 -13 -45 -1 -45 6
0 13 5 17 12 4 7 3 8 -4 4 -7 -4 -12 -1 -12 8 0 9 6 15 13 13 6 -1 11 5 9 13
-3 11 -1 12 8 4 9 -9 9 -17 1 -32 -6 -10 -8 -22 -4 -25 3 -4 1 -12 -4 -19 -6
-7 -9 -23 -7 -36 3 -14 -2 -25 -12 -29 -13 -5 -13 -7 -2 -14 8 -5 9 -9 2 -9
-7 0 -10 -13 -9 -30 1 -16 -2 -27 -7 -24 -5 3 -6 -7 -4 -22 6 -33 0 -45 -19
-38 -8 4 -12 11 -9 16 4 6 10 5 15 -3 6 -10 9 -10 9 -2 0 13 -19 28 -26 20 -3
-2 -7 -14 -9 -26 -3 -11 -7 -30 -9 -41 -3 -11 -1 -20 5 -20 5 0 8 -5 6 -11 -1
-6 3 -13 9 -16 6 -2 11 3 11 12 0 8 -4 15 -7 15 -4 0 -7 11 -7 25 0 27 4 30
27 15 8 -5 10 -10 4 -10 -7 0 -11 -14 -8 -35 2 -26 -1 -35 -12 -35 -8 0 -12
-5 -9 -10 4 -6 12 -7 18 -3 7 3 4 -3 -5 -14 -21 -23 -24 -40 -5 -24 10 8 14 7
14 -4 0 -7 -5 -13 -10 -12 -5 1 -12 -4 -15 -12 -3 -8 0 -11 7 -7 7 5 9 1 4
-10 -5 -13 -3 -15 8 -9 11 7 12 6 2 -7 -7 -8 -10 -18 -6 -21 3 -4 1 -7 -6 -7
-7 0 -11 6 -8 13 6 16 -11 47 -25 47 -9 0 -9 -3 0 -12 15 -15 16 -32 1 -22 -8
5 -8 1 0 -14 8 -15 8 -22 -2 -26 -6 -3 -1 -4 12 -3 14 1 26 -4 28 -13 4 -13 3
-13 -6 0 -9 13 -11 13 -11 -2 0 -9 6 -19 13 -21 9 -4 9 -6 -1 -6 -7 -1 -15 6
-18 14 -12 29 -19 14 -19 -39 -1 -30 2 -53 5 -51 4 2 5 -23 3 -57 -2 -36 1
-66 8 -74 9 -11 9 -14 0 -14 -7 0 -9 -5 -5 -11 3 -6 8 -30 9 -53 4 -65 4 -66
22 -66 14 0 14 3 -3 23 l-19 22 22 -19 c23 -19 22 -36 -3 -36 -8 0 -14 -4 -14
-10 0 -5 6 -10 14 -10 8 0 18 -4 21 -10 3 -5 0 -7 -8 -4 -12 4 -14 -3 -10 -38
3 -24 10 -46 17 -50 6 -4 7 -8 2 -8 -5 0 -2 -8 5 -17 8 -9 9 -14 3 -10 -7 4
-9 -4 -6 -24 2 -16 9 -29 14 -29 5 0 7 -4 4 -9 -3 -5 1 -32 10 -59 12 -38 21
-50 34 -47 9 2 17 -3 17 -11 0 -10 -4 -11 -13 -3 -8 6 -14 6 -18 0 -4 -5 -2
-12 4 -16 6 -4 8 -11 5 -16 -4 -5 2 -9 12 -9 15 0 15 -2 4 -9 -12 -8 -12 -12
-2 -25 8 -9 11 -16 8 -16 -3 0 -1 -13 4 -29 6 -17 16 -29 22 -27 7 1 9 1 5 -1
-12 -7 -9 -24 16 -76 12 -26 26 -44 31 -40 4 5 5 2 1 -5 -8 -13 43 -132 57
-132 5 0 6 -4 3 -9 -3 -5 4 -24 17 -42 12 -19 28 -46 36 -61 8 -16 18 -28 23
-28 5 0 6 -4 3 -10 -3 -5 -2 -10 3 -10 6 0 14 -13 20 -28 5 -16 17 -36 27 -45
9 -9 14 -17 10 -17 -3 0 7 -17 22 -37 97 -130 125 -163 135 -156 6 3 8 1 5 -4
-9 -15 32 -65 46 -56 7 3 9 3 5 -2 -11 -11 31 -67 44 -59 6 4 8 3 5 -3 -7 -11
85 -103 193 -192 41 -34 82 -68 90 -75 8 -7 25 -18 37 -25 12 -6 28 -18 36
-26 22 -21 189 -128 245 -156 26 -13 49 -26 52 -29 5 -6 29 -17 185 -91 38
-18 94 -40 125 -50 30 -9 93 -30 140 -47 47 -16 108 -33 135 -36 28 -4 57 -9
65 -11 8 -2 29 -7 45 -10 17 -2 41 -7 55 -10 88 -17 717 -25 935 -11 343 22
408 33 645 112 191 64 293 111 460 213 19 11 44 25 55 30 94 43 435 328 435
363 0 6 3 9 6 6 5 -5 21 11 104 102 27 30 48 57 127 167 100 138 126 180 118
193 -4 6 -1 9 5 8 7 -2 17 6 23 17 7 11 20 32 29 46 13 20 14 29 5 38 -9 10
-9 11 3 7 11 -4 22 9 38 44 12 27 22 53 22 59 0 5 3 11 8 13 9 4 64 142 97
248 44 137 45 141 32 134 -7 -3 -5 0 4 8 19 16 31 68 15 68 -6 0 -5 4 3 9 8 5
11 16 8 25 -4 9 -3 16 2 16 4 0 8 6 9 13 1 6 4 30 7 52 6 38 6 39 -10 20 -16
-20 -16 -20 -6 1 6 12 7 24 3 28 -3 4 1 4 10 1 12 -5 17 -1 17 12 0 10 2 44 6
75 5 52 3 57 -12 52 -10 -3 -7 1 6 9 l23 14 -26 20 c-14 11 -23 23 -19 26 3 3
14 -4 24 -16 l18 -22 -2 23 c-1 12 -5 22 -9 22 -4 0 -8 5 -8 11 0 5 4 8 8 5 4
-2 8 23 7 57 0 34 4 68 9 75 6 9 2 12 -15 10 -18 -2 -23 1 -21 15 2 9 -3 17
-9 17 -7 0 -10 2 -7 5 3 3 13 3 22 -1 14 -5 14 -9 4 -22 -11 -13 -10 -14 2
-10 19 6 22 75 3 93 -16 17 -17 25 0 21 6 -1 9 -1 4 1 -4 3 -4 9 -1 15 4 6 -2
8 -17 3 -16 -4 -20 -3 -11 3 11 7 11 10 -2 15 -12 5 -15 15 -12 34 3 15 1 32
-5 39 -7 8 -7 14 1 19 5 3 10 11 10 16 0 6 -4 8 -9 5 -4 -3 -7 5 -6 17 1 12 3
22 4 22 2 0 4 8 6 18 2 9 -1 17 -5 17 -5 0 -11 -8 -14 -17 -4 -14 -4 -14 -3 2
1 11 -2 26 -7 34 -6 10 -5 12 2 7 7 -4 12 -2 12 3 0 6 -4 11 -9 11 -6 0 -10 8
-10 18 0 16 -8 57 -11 57 -1 0 -3 15 -5 33 -2 18 -8 39 -13 45 -5 7 -8 20 -7
30 2 9 -1 17 -7 17 -6 0 -8 9 -5 20 3 10 1 20 -4 22 -5 2 -10 15 -11 31 -1 15
-5 27 -9 27 -3 0 -6 7 -7 15 -1 8 -3 22 -4 30 -1 8 -5 15 -10 15 -5 0 -7 4 -3
9 3 5 1 12 -5 16 -6 4 -8 11 -5 16 4 5 1 9 -5 9 -6 0 -9 4 -5 9 3 5 1 12 -5
16 -6 4 -8 11 -5 16 4 5 1 9 -5 9 -6 0 -8 5 -5 10 9 15 37 -9 31 -26 -3 -7 -1
-16 5 -20 6 -3 8 -13 5 -21 -4 -9 -2 -11 6 -7 7 4 8 3 4 -4 -11 -18 0 -14 15
5 12 14 12 16 0 8 -11 -6 -13 -4 -8 8 3 9 2 19 -4 22 -5 4 -8 14 -7 23 2 9 -3
17 -11 17 -8 0 -16 6 -19 14 -3 8 0 11 7 7 7 -5 9 -1 5 8 -3 9 -10 16 -16 16
-5 0 -6 -4 -3 -10 3 -5 1 -10 -5 -10 -6 0 -8 -4 -5 -10 3 -5 1 -10 -5 -10 -7
0 -9 8 -5 20 4 14 2 20 -6 18 -7 -2 -14 2 -14 7 -1 6 -8 24 -15 40 -7 17 -14
34 -14 38 -1 4 -8 12 -16 17 -11 7 -12 12 -3 21 12 12 33 4 33 -13 0 -6 -7 -5
-17 3 -16 13 -17 12 -5 -3 19 -24 45 -13 29 13 -6 10 -18 19 -25 19 -7 0 -11
4 -8 9 3 5 -1 12 -9 15 -9 3 -20 17 -25 32 -6 15 -13 24 -17 20 -4 -3 2 -19
13 -34 30 -41 36 -52 27 -52 -7 0 -56 75 -58 90 -3 17 -70 110 -79 110 -6 0
-4 5 4 10 8 5 10 10 4 10 -6 0 -24 19 -40 43 -16 23 -37 49 -46 58 -10 9 -15
19 -11 23 3 3 0 6 -7 6 -7 0 -10 3 -7 6 3 4 -5 15 -18 26 -14 11 -25 25 -25
32 0 6 -9 18 -20 26 -14 10 -16 17 -9 26 8 9 5 11 -10 7 -12 -3 -21 -1 -21 5
0 5 -14 23 -31 40 -17 17 -28 35 -25 41 5 7 1 8 -10 4 -13 -5 -16 -3 -11 10 3
9 3 16 -1 16 -20 -3 -33 2 -27 11 3 6 1 10 -4 10 -16 0 -51 33 -51 48 0 7 -4
11 -9 7 -13 -7 -41 22 -41 43 0 15 -2 15 -10 2 -8 -13 -10 -12 -10 3 0 9 -6
16 -12 15 -7 -2 -12 3 -10 10 1 6 -1 11 -5 10 -16 -4 -53 23 -47 34 4 6 3 8
-3 5 -6 -4 -22 4 -37 18 -14 13 -26 21 -26 17 0 -4 -4 -2 -8 3 -4 6 -26 24
-49 41 -24 17 -41 33 -38 36 3 2 -1 5 -8 5 -17 0 -67 33 -67 44 0 5 -3 8 -7 7
-15 -3 -43 14 -37 23 3 5 2 8 -3 7 -13 -4 -73 23 -73 33 0 5 -7 9 -16 9 -8 0
-12 4 -9 10 3 5 0 7 -7 5 -8 -3 -22 2 -33 11 -11 8 -15 13 -9 10 6 -3 11 1 11
9 0 10 -4 12 -12 5 -12 -10 -65 8 -65 23 0 5 -4 5 -10 2 -5 -3 -10 -1 -10 4 0
6 -3 10 -7 9 -16 -3 -62 25 -56 35 3 6 1 7 -5 3 -6 -3 -33 3 -59 15 -129 58
-152 68 -203 89 -30 13 -59 28 -65 34 -5 6 -14 11 -20 11 -20 1 -85 29 -85 38
0 4 -3 6 -8 3 -11 -7 -83 40 -74 49 4 4 2 5 -4 2 -10 -6 -30 6 -106 65 -34 26
-95 109 -115 156 -8 19 -14 64 -14 101 -1 69 1 79 19 124 7 16 12 33 12 38 0
6 30 40 67 77 63 63 65 67 42 73 -42 10 -172 -54 -207 -103 -17 -23 -35 -23
-28 0 2 9 7 47 11 84 3 37 10 80 14 95 10 40 8 54 -11 66 -13 9 -21 6 -37 -14
-24 -30 -91 -163 -91 -182 0 -8 -6 -19 -13 -25 -16 -14 -22 35 -19 161 1 49
-2 87 -8 87 -28 0 -59 -27 -90 -80 -36 -60 -50 -61 -45 -3 1 18 -1 35 -5 38
-3 2 -5 42 -4 89 2 85 -3 97 -32 78z m-2144 -2062 c0 -5 -4 -10 -10 -10 -5 0
-10 5 -10 10 0 6 5 10 10 10 6 0 10 -4 10 -10z m-321 -651 c-15 -9 -32 -2 -24
11 3 5 13 6 21 3 12 -4 13 -8 3 -14z m-9 -29 c0 -5 -4 -10 -10 -10 -5 0 -10 5
-10 10 0 6 5 10 10 10 6 0 10 -4 10 -10z m5165 -542 c-16 -12 -27 -9 -22 5 2
6 0 21 -6 32 -8 16 -4 15 14 -5 15 -15 21 -28 14 -32z m-5249 -82 c1 -9 -2
-14 -7 -10 -5 3 -9 0 -9 -5 0 -6 5 -11 12 -11 6 0 9 -3 5 -6 -3 -3 -1 -18 4
-32 6 -15 7 -23 3 -19 -4 4 -12 2 -19 -3 -8 -7 -12 -5 -12 5 0 8 4 12 9 9 11
-7 10 13 -3 37 -8 15 -7 24 3 37 11 13 11 15 -3 10 -9 -4 -16 -1 -16 8 0 19
30 1 33 -20z m5259 -16 c8 -13 -5 -13 -25 0 -13 8 -13 10 2 10 9 0 20 -4 23
-10z m1 -31 c11 -18 -14 -35 -28 -20 -11 10 -10 11 5 6 9 -4 17 -3 17 3 0 6
-8 13 -17 15 -16 4 -16 5 -1 6 9 0 20 -4 24 -10z m-6 -49 c0 -5 -8 -10 -17
-10 -15 0 -16 2 -3 10 19 12 20 12 20 0z m-5266 -42 c-5 -7 -2 -9 9 -5 11 4
14 2 10 -9 -5 -12 -23 -21 -23 -10 0 2 -3 11 -6 20 -3 9 -1 16 6 16 6 0 8 -5
4 -12z m36 -31 c0 -2 -10 -12 -22 -23 l-23 -19 19 23 c18 21 26 27 26 19z
m5220 -28 c0 -5 -4 -9 -8 -9 -5 0 -9 7 -9 15 0 8 4 12 9 9 4 -3 8 -9 8 -15z
m-5232 -21 c0 -7 3 -25 5 -40 2 -15 0 -25 -5 -22 -5 3 -7 12 -5 18 3 7 1 19
-3 26 -5 8 -6 18 -4 22 7 11 10 10 12 -4z m5242 -23 c0 -2 -10 -9 -22 -15 -22
-11 -22 -10 -4 4 21 17 26 19 26 11z m-10 -50 c11 -13 10 -14 -4 -9 -9 3 -16
10 -16 15 0 13 6 11 20 -6z m-10 -45 c-24 -15 -36 -11 -14 4 10 8 21 12 24 10
2 -3 -2 -9 -10 -14z m-5193 -76 c-3 -3 -12 -4 -19 -1 -8 3 -5 6 6 6 11 1 17
-2 13 -5z m5178 -12 c-3 -3 -11 0 -18 7 -9 10 -8 11 6 5 10 -3 15 -9 12 -12z
m-5172 -19 c-3 -7 -6 -13 -8 -13 -2 0 -5 6 -8 13 -3 8 1 14 8 14 7 0 11 -6 8
-14z m12 -33 c3 -5 1 -10 -4 -10 -6 0 -11 5 -11 10 0 6 2 10 4 10 3 0 8 -4 11
-10z m5142 -26 c-3 -3 -12 -4 -19 -1 -8 3 -5 6 6 6 11 1 17 -2 13 -5z m-5120
-61 c0 -8 -4 -10 -12 -3 -7 5 -16 6 -20 2 -5 -4 -5 -2 -2 4 9 15 34 13 34 -3z
m5111 -9 c-12 -12 -17 -13 -23 -3 -5 8 -4 10 4 5 6 -4 14 0 17 9 4 9 9 13 12
10 3 -3 -1 -13 -10 -21z m-33 -132 c-3 -3 -11 0 -18 7 -9 10 -8 11 6 5 10 -3
15 -9 12 -12z m-5023 -67 c3 3 11 -3 19 -12 12 -16 12 -17 -2 -6 -9 7 -18 11
-21 8 -3 -3 -11 3 -19 12 -12 16 -12 17 2 6 9 -7 18 -11 21 -8z m4983 -5 c-3
-5 -11 -10 -16 -10 -6 0 -7 5 -4 10 3 6 11 10 16 10 6 0 7 -4 4 -10z m2 -33
c0 -8 -6 -14 -14 -14 -9 0 -10 4 -2 14 6 7 12 13 14 13 1 0 2 -6 2 -13z
m-4904 -162 c-3 -9 -8 -14 -10 -11 -3 3 -2 9 2 15 9 16 15 13 8 -4z m4822 -5
c3 -5 1 -10 -4 -10 -6 0 -11 5 -11 10 0 6 2 10 4 10 3 0 8 -4 11 -10z m-39
-80 c0 -12 -4 -16 -9 -11 -5 5 -6 14 -3 20 10 15 12 14 12 -9z m-4699 -55 c0
-8 -4 -12 -9 -9 -5 3 -6 10 -3 15 9 13 12 11 12 -6z m217 -351 c3 -8 2 -12 -4
-9 -6 3 -10 10 -10 16 0 14 7 11 14 -7z"/>
<path d="M4515 4689 c-4 -6 -5 -12 -2 -15 2 -3 7 2 10 11 7 17 1 20 -8 4z"/>
<path d="M4550 4656 c0 -2 8 -10 18 -17 15 -13 16 -12 3 4 -13 16 -21 21 -21
13z"/>
<path d="M1480 4620 c-8 -5 -10 -10 -5 -10 6 0 17 5 25 10 8 5 11 10 5 10 -5
0 -17 -5 -25 -10z"/>
<path d="M4695 4560 c-3 -5 -1 -10 4 -10 6 0 11 5 11 10 0 6 -2 10 -4 10 -3 0
-8 -4 -11 -10z"/>
<path d="M4726 4538 c3 -5 10 -6 15 -3 13 9 11 12 -6 12 -8 0 -12 -4 -9 -9z"/>
<path d="M4816 4482 c-3 -5 1 -9 9 -9 8 0 12 4 9 9 -3 4 -7 8 -9 8 -2 0 -6 -4
-9 -8z"/>
<path d="M1155 4380 c-3 -5 -1 -10 4 -10 6 0 11 5 11 10 0 6 -2 10 -4 10 -3 0
-8 -4 -11 -10z"/>
<path d="M1153 4345 c0 -8 4 -12 9 -9 5 3 6 10 3 15 -9 13 -12 11 -12 -6z"/>
<path d="M4940 4346 c0 -2 8 -10 18 -17 15 -13 16 -12 3 4 -13 16 -21 21 -21
13z"/>
<path d="M1115 4321 c-3 -5 -2 -12 3 -15 5 -3 9 1 9 9 0 17 -3 19 -12 6z"/>
<path d="M5133 4159 c-2 -23 3 -25 10 -4 4 8 3 16 -1 19 -4 3 -9 -4 -9 -15z"/>
<path d="M966 4157 c3 -10 9 -15 12 -12 3 3 0 11 -7 18 -10 9 -11 8 -5 -6z"/>
<path d="M920 4100 c8 -5 20 -10 25 -10 6 0 3 5 -5 10 -8 5 -19 10 -25 10 -5
0 -3 -5 5 -10z"/>
<path d="M900 4087 c0 -2 6 -10 14 -16 11 -9 16 -9 22 1 4 7 4 10 -1 6 -4 -4
-14 -3 -22 3 -7 6 -13 9 -13 6z"/>
<path d="M5220 4051 c0 -7 -4 -9 -10 -6 -5 3 -10 1 -10 -4 0 -6 4 -11 9 -11
13 0 25 20 17 27 -3 4 -6 1 -6 -6z"/>
<path d="M5231 4023 c0 -5 4 -17 9 -28 8 -17 8 -16 7 8 -1 15 -5 27 -9 27 -4
0 -8 -3 -7 -7z"/>
<path d="M850 4000 c0 -5 5 -10 11 -10 5 0 7 5 4 10 -3 6 -8 10 -11 10 -2 0
-4 -4 -4 -10z"/>
<path d="M5250 3966 c0 -2 7 -7 16 -10 8 -3 12 -2 9 4 -6 10 -25 14 -25 6z"/>
<path d="M788 3903 c7 -3 16 -2 19 1 4 3 -2 6 -13 5 -11 0 -14 -3 -6 -6z"/>
<path d="M5300 3899 c0 -5 5 -7 10 -4 6 3 10 8 10 11 0 2 -4 4 -10 4 -5 0 -10
-5 -10 -11z"/>
<path d="M775 3880 c3 -5 8 -10 11 -10 2 0 4 5 4 10 0 6 -5 10 -11 10 -5 0 -7
-4 -4 -10z"/>
<path d="M5315 3880 c-3 -6 1 -7 9 -4 18 7 21 14 7 14 -6 0 -13 -4 -16 -10z"/>
<path d="M750 3860 c-13 -8 -12 -10 3 -10 9 0 17 5 17 10 0 12 -1 12 -20 0z"/>
<path d="M5324 3858 c-4 -7 -3 -10 1 -5 5 4 14 -4 19 -18 l11 -26 14 23 c13
21 13 22 -2 9 -15 -11 -17 -11 -17 2 0 21 -17 30 -26 15z"/>
<path d="M5370 3809 c0 -5 5 -7 10 -4 6 3 10 8 10 11 0 2 -4 4 -10 4 -5 0 -10
-5 -10 -11z"/>
<path d="M713 3786 c0 -27 0 -27 14 -6 8 12 12 24 9 27 -3 4 -6 0 -6 -8 0 -12
-2 -12 -9 0 -6 9 -8 5 -8 -13z"/>
<path d="M5406 3767 c3 -10 9 -15 12 -12 3 3 0 11 -7 18 -10 9 -11 8 -5 -6z"/>
<path d="M690 3755 c0 -8 4 -15 10 -15 5 0 7 7 4 15 -4 8 -8 15 -10 15 -2 0
-4 -7 -4 -15z"/>
<path d="M670 3716 c0 -8 4 -17 9 -21 6 -3 9 4 8 15 -1 23 -17 28 -17 6z"/>
<path d="M637 3674 c-3 -3 -3 -13 0 -22 4 -9 2 -13 -4 -9 -6 4 -14 0 -17 -8
-4 -13 -2 -13 14 -5 10 5 18 19 17 30 -1 22 -1 22 -10 14z"/>
<path d="M5455 3650 c-3 -5 -2 -17 3 -26 8 -14 10 -14 22 1 11 13 10 15 -4 9
-9 -3 -16 -2 -16 4 0 6 6 13 13 15 9 4 9 6 0 6 -6 1 -15 -3 -18 -9z"/>
<path d="M630 3610 c-8 -5 -12 -12 -9 -15 4 -3 12 1 19 10 14 17 11 19 -10 5z"/>
<path d="M5481 3606 c-9 -11 -8 -15 5 -20 9 -4 19 -4 22 -1 3 3 0 5 -6 5 -7 0
-12 5 -12 11 0 5 5 7 12 3 7 -4 8 -3 4 4 -9 15 -11 15 -25 -2z"/>
<path d="M596 3595 c-3 -8 -1 -15 4 -15 6 0 10 7 10 15 0 8 -2 15 -4 15 -2 0
-6 -7 -10 -15z"/>
<path d="M577 3563 c-4 -6 1 -14 10 -17 20 -8 40 9 22 19 -8 5 -10 4 -5 -3 4
-7 3 -12 -3 -12 -5 0 -11 5 -13 12 -3 8 -6 9 -11 1z"/>
<path d="M565 3521 c-3 -6 3 -9 14 -8 11 0 17 5 15 9 -7 11 -22 10 -29 -1z"/>
<path d="M5559 3428 c-8 -27 -6 -38 5 -29 7 6 17 7 22 3 4 -4 2 1 -5 11 -12
16 -20 21 -22 15z"/>
<path d="M5565 3381 c-3 -5 2 -16 10 -24 11 -12 12 -17 2 -20 -9 -4 -9 -6 1
-6 7 -1 11 -5 7 -10 -3 -5 2 -16 10 -24 10 -11 11 -17 3 -19 -7 -3 -8 -9 -2
-19 5 -8 9 -21 9 -30 0 -9 5 -22 11 -30 6 -8 10 -27 9 -42 -1 -17 4 -31 12
-34 12 -5 12 -7 1 -14 -8 -6 -9 -9 -1 -9 6 0 10 -8 8 -17 -1 -10 2 -23 7 -30
5 -7 6 -18 2 -24 -4 -8 -3 -9 4 -5 11 6 16 -6 13 -26 0 -5 3 -8 8 -8 6 0 9 9
8 20 -1 11 -5 20 -10 20 -5 0 -7 6 -4 14 3 8 3 17 -1 21 -4 4 -8 15 -8 26 -1
10 -2 28 -3 38 0 11 -8 26 -16 34 -10 11 -11 17 -3 19 6 2 9 12 5 21 -4 11
-12 14 -24 10 -16 -6 -16 -5 -4 11 13 15 13 19 0 27 -12 7 -12 9 1 9 10 0 11
3 4 8 -6 4 -10 17 -9 30 1 13 -5 27 -14 32 -14 8 -14 9 -1 10 12 0 12 2 2 9
-8 4 -13 11 -13 15 4 26 -11 37 -24 17z m85 -242 c0 -5 -4 -9 -8 -9 -5 0 -9 7
-9 15 0 8 4 12 9 9 4 -3 8 -9 8 -15z"/>
<path d="M490 3201 c0 -7 -4 -10 -9 -6 -18 10 -30 -23 -33 -92 -1 -18 -7 -33
-13 -33 -5 0 -3 -5 5 -10 10 -6 11 -10 3 -10 -18 0 -16 -17 3 -24 8 -3 12 -2
9 4 -3 6 -3 16 2 23 4 6 8 24 9 40 2 45 4 48 14 42 6 -3 10 -1 10 5 0 7 -7 10
-14 7 -10 -4 -13 -1 -9 8 3 8 10 12 17 8 6 -3 8 -3 4 2 -4 4 -3 14 4 22 6 7 8
16 4 20 -3 3 -6 1 -6 -6z"/>
<path d="M5664 2968 c-4 -6 0 -17 10 -23 14 -11 14 -14 1 -25 -18 -15 -13 -26
15 -33 16 -4 18 -2 11 11 -4 10 -6 23 -4 29 3 7 -2 16 -11 19 -9 3 -16 10 -16
16 0 5 5 6 10 3 6 -3 10 -1 10 4 0 15 -17 14 -26 -1z"/>
<path d="M412 2860 c0 -22 4 -40 9 -40 6 0 7 5 4 10 -4 6 -1 17 5 25 10 12 10
15 0 15 -7 0 -10 7 -6 15 3 8 2 15 -3 15 -5 0 -9 -18 -9 -40z"/>
<path d="M5677 2874 c-4 -4 -1 -14 6 -22 9 -13 9 -14 0 -8 -7 4 -13 3 -13 -2
0 -5 9 -12 20 -15 12 -3 20 0 20 7 0 18 -24 48 -33 40z"/>
</g>
</svg>
